<svg width="1200" height="1200" xmlns="http://www.w3.org/2000/svg" xmlns:xlink="http://www.w3.org/1999/xlink" version="1.1"><g transform="scale(12) translate(0, -0.2866206169128418)">                        <g fill="#435916"><path xmlns="http://www.w3.org/2000/svg" d="M 50.299002,6.5732417 C 40.37807,16.969416 34.04303,32.629168 33.966446,50.180624 33.889742,67.732094 40.087687,83.517653 49.917527,94 47.067117,78.133272 49.641473,60.780755 58.054012,46.799968 60.19076,43.248926 62.59491,40.100112 65.198201,37.369808 62.981921,25.115879 57.654547,14.40198 50.299002,6.5732417 z" color=""/><path xmlns="http://www.w3.org/2000/svg" d="M 6.1814936,24.139172 C 3.2618617,39.993327 5.7042538,57.285774 14.055707,71.303132 22.407181,85.320477 34.407388,93.17554 47.261575,93.995892 37.38609,83.556521 31.660195,67.798151 31.660195,50.246516 c 0,-4.489796 0.405478,-8.828926 1.181138,-13.018101 C 25.206796,29.193213 15.782989,24.740424 6.1814936,24.139172 z" color=""/><path xmlns="http://www.w3.org/2000/svg" d="M 93.95612,24.552943 C 60.110594,30.709673 47.398571,65.069996 52.304382,93.998006 86.349297,87.840099 98.922817,53.663493 93.95612,24.552943 z" color=""/></g>        </g></svg>